# xmcd
#
# Track frame offsets:
# 150
# 7209
# 14996
# 31252
# 37410
# 51715
# 62703
# 72420
# 84060
# 94630
#
# Disc length: 1441 seconds
#
#
# Revision: 0
# Processed by: cddbd v1.5.1PL2 Copyright (c) Steve Scherf et al.
# Submitted via: FreeRIP 2.945 
#
DISCID=8e059f0a
DTITLE=Stumps Da Clown!!! - Honky Parade
DYEAR=1994
DGENRE=Blues
TTITLE0=My Girl
TTITLE1=Open Road
TTITLE2=Instrumental 1
TTITLE3=Turkey Necks
TTITLE4=Instrumental 2
TTITLE5=Where I'm Bound
TTITLE6=Instrumental 3
TTITLE7=Freight Train
TTITLE8=Hobo Lulabye
TTITLE9=I Got Trouble
EXTD=
EXTT0=
EXTT1=
EXTT2=
EXTT3=
EXTT4=
EXTT5=
EXTT6=
EXTT7=
EXTT8=
EXTT9=
PLAYORDER=
